PathFileType	4	(X/Y/Z)	OpenSim_Sub03_CSStiffKnee_Gyro.trc
DataRate	CameraRate	NumFrames	NumMarkers	Units	OrigDataRate	OrigDataStartFrame	OrigNumFrames
100	100	27	8	m	100	1364	3637
Frame#	Time	torso_imu_offset_imu	pelvis_imu_offset_imu	tibia_r_imu_offset_imu	femur_r_imu_offset_imu	tibia_l_imu_offset_imu	femur_l_imu_offset_imu	toes_r_imu_offset_imu	toes_l_imu_offset_imu
				X1	Y1	Z1	X2	Y2	Z2	X3	Y3	Z3	X4	Y4	Z4	X5	Y5	Z5	X6	Y6	Z6	X7	Y7	Z7	X8		Y8	Z8	

1364	13.63000000	-0.14746200	0.58143300	-0.19781600	-0.46798900	-0.52362100	0.01407300	-0.37726700	-0.22070900	-1.55503600	-0.25987200	0.26809700	-0.21554200	-0.29102200	-0.19517800	-0.55733800	-0.44799800	-0.23568700	-0.31758800	-0.00699000	-0.59006000	-0.27981800	0.12315200	0.17870100	-0.61564100
1365	13.64000000	-0.20950100	0.60085300	-0.20259200	-0.51260400	-0.56281700	0.05101700	-0.37388400	-0.23468900	-1.63889800	-0.27316600	0.31983800	-0.12646300	-0.38771300	-0.19727000	-0.33618600	-0.54043300	-0.25011300	-0.22855000	0.03916400	-0.72411400	-0.28568200	-0.38682200	-0.37794100	-0.50728500
1366	13.65000000	-0.28186000	0.61477200	-0.21049200	-0.53658200	-0.59175600	0.08814200	-0.40696300	-0.26362200	-1.75585500	-0.28680700	0.38014900	-0.02658700	-0.59020100	-0.26529200	-0.10716000	-0.55794700	-0.28605800	-0.13756300	-0.03255300	-0.86600300	-0.31171700	-0.61592400	-1.20365000	-0.46264800
1367	13.66000000	-0.37837000	0.62711000	-0.21737700	-0.57355500	-0.62797100	0.12336300	-0.44384600	-0.31194800	-1.89185600	-0.31644900	0.44404900	0.06269700	-0.84478500	-0.23107900	0.16394200	-0.49147800	-0.26337400	-0.07504400	-0.04780900	-1.06757900	-0.36427900	-1.07442100	-1.84366200	-0.48278700
1368	13.67000000	-0.47052700	0.64389800	-0.22595700	-0.60071300	-0.64848400	0.19596400	-0.52451800	-0.36759900	-2.00498700	-0.35202900	0.50833600	0.19554000	-1.18673100	-0.24223700	0.54234200	-0.36696300	-0.21637800	-0.03127300	-0.09334200	-1.29295100	-0.43274900	-1.66338200	-2.94715500	-0.42818300
1369	13.68000000	-0.54959600	0.65504100	-0.21553300	-0.63737600	-0.64808000	0.20537600	-0.58843000	-0.46102400	-2.14648100	-0.39755900	0.57321300	0.37520200	-1.50672500	-0.33677100	1.05592700	-0.21980800	-0.25321900	0.01736700	-0.11375400	-1.56581000	-0.50999200	-1.17848600	-4.10856700	-0.00755500
1370	13.69000000	-0.59899400	0.64967200	-0.22615500	-0.65186200	-0.62792300	0.24619600	-0.74322800	-0.53566600	-2.28853100	-0.48029600	0.64580200	0.57211900	-1.86075600	-0.53738900	1.71022000	-0.15130100	-0.35731600	0.07580700	-0.16522600	-1.89744700	-0.62500300	1.68429100	-4.96885700	0.63913800
1371	13.70000000	-0.63348900	0.60679000	-0.23504300	-0.63409900	-0.55708300	0.21917000	-0.79143100	-0.60076000	-2.45666400	-0.57060700	0.69578200	0.77943100	-1.73621800	-0.96213100	2.12732000	-0.04464400	-0.36202800	0.15805600	-0.20211500	-2.33241200	-0.78075600	-0.51226200	-3.07472600	1.91277100
1372	13.71000000	-0.64287100	0.51575800	-0.24046000	-0.55727400	-0.51459700	0.09206300	-0.76049700	-0.62039300	-2.61434600	-0.46881200	0.70240100	1.02570500	-0.82491500	-1.25106600	1.34091500	0.33730900	-0.31447700	0.25245000	-0.33077900	-2.86677900	-0.97597500	-2.81812700	-1.41703000	1.91575900
1373	13.72000000	-0.65624500	0.41274600	-0.22427700	-0.41597600	-0.50229000	-0.13999400	-0.67437000	-0.68530000	-2.67173200	-0.19634400	0.73751300	1.31897700	-1.18092600	-0.16088800	0.68413100	0.34569200	-0.32726300	0.20146100	-0.38955400	-3.44285000	-1.29542500	-2.16662200	-0.40714500	0.84012100
1374	13.73000000	-0.65685400	0.39717700	-0.21200300	-0.23544300	-0.45974800	-0.38602200	-0.66388000	-0.74980600	-2.77910400	-0.05953100	0.94670700	1.69531300	-1.13473000	0.04986400	1.40988000	0.13847200	-0.57848600	0.04983100	-0.40999500	-3.96934500	-1.77426000	-1.22476200	0.05905600	0.52288600
1375	13.74000000	-0.63800200	0.39335700	-0.20654100	-0.15408300	-0.41298700	-0.50339500	-0.67877100	-0.84878800	-2.81801500	0.09665800	1.03292400	2.01022500	-0.40341200	-0.82896400	1.99880400	-0.06843000	-0.71816500	0.04236100	-0.29278900	-4.25528000	-2.40759100	-0.48512800	-0.19037700	0.31264400
1376	13.75000000	-0.62101000	0.41647200	-0.17014300	-0.19579600	-0.41277900	-0.37799900	-0.66964700	-0.95149000	-2.77172800	0.38911900	0.86353600	2.14306400	0.52528600	-0.46540900	1.79614800	-0.21502300	-0.41292300	0.17822300	0.42888300	-4.65189300	-3.19462600	-0.40736500	-0.15506700	0.11145100
1377	13.76000000	-0.61400400	0.45057100	-0.15929100	-0.27519500	-0.42101600	-0.19999200	-0.47114200	-1.08671400	-2.72213000	0.58145300	0.77716200	2.35136700	1.27672800	-0.00386500	1.36106400	-0.09470200	-0.19270800	0.37101700	1.01913800	-4.96111300	-3.75214400	-0.13990600	-0.24270300	0.01386100
1378	13.77000000	-0.62470500	0.44862900	-0.18166300	-0.32863500	-0.36027500	-0.08966800	-0.00142200	-1.24681000	-2.61686100	0.34897000	0.79274000	2.47614100	0.36369800	-0.35719500	1.25143600	0.47622800	-0.16806300	0.60783500	1.30173200	-4.83625200	-4.04736900	0.00985900	-0.24812100	-0.07303400
1379	13.78000000	-0.67692600	0.41371700	-0.22912400	-0.37338800	-0.25856200	-0.03539900	0.50187000	-1.32318300	-2.41573100	-0.13190300	0.75079400	2.57507700	-0.25821500	-0.61159200	1.11780400	0.99798200	-0.07022400	0.80477700	1.35989000	-4.56768600	-4.12576400	0.08502400	-0.25247300	-0.11102000
1380	13.79000000	-0.72997900	0.36292200	-0.22783500	-0.40827900	-0.17696600	-0.02182500	0.75234100	-1.31400600	-2.26387600	-0.69945500	0.59219000	2.59849200	0.19903900	-0.23724600	0.84278800	1.19410900	-0.01455300	0.89999500	1.29909900	-4.37282300	-4.28827400	0.12754700	-0.28731400	-0.13151600
1381	13.80000000	-0.75639500	0.30720700	-0.21612800	-0.37107600	-0.10055200	0.00385400	0.63839200	-1.28306500	-2.13032000	-1.16829900	0.40395500	2.44584200	0.38886300	-0.08264200	0.72842500	1.12808300	-0.00182700	0.92877400	1.07434600	-4.08095600	-4.11106000	0.15404700	-0.31170500	-0.11363900
1382	13.81000000	-0.76893600	0.26445700	-0.21675400	-0.30593600	-0.00957000	0.05126200	0.12545400	-1.00791500	-1.91332100	-1.34815100	0.21840200	2.19163600	0.51280100	-0.25887800	0.70762200	0.89525700	-0.00497200	0.94868600	0.28184500	-1.99474300	-3.12490600	0.14464500	-0.30834500	-0.09481600
1383	13.82000000	-0.73891900	0.21315400	-0.20441700	-0.23753300	0.04311800	0.13163300	-0.79926700	-0.70059300	-1.49254500	-1.10314300	0.01305700	1.96509600	0.52187300	-0.18110100	0.64098200	0.56835100	-0.02011400	1.00397400	-0.85913200	-0.26064000	-2.07906700	0.13771000	-0.30613300	-0.05821400
1384	13.83000000	-0.66682000	0.14941500	-0.16453700	-0.17130700	0.06275300	0.24656100	-1.86566100	-0.62613700	-1.23771500	-0.58325600	-0.11061100	1.84090900	0.56386800	-0.13970600	0.53329000	0.42152400	-0.03656000	1.05707300	-1.05728600	-0.05091700	-1.61169000	0.11443900	-0.30697300	-0.03769000
1385	13.84000000	-0.59241600	0.08908200	-0.11792300	-0.13165000	0.07617100	0.38653300	-2.97428300	-0.45158000	-0.58494000	-0.19439500	-0.11044100	1.66970700	0.40497600	-0.12046800	0.48614200	0.50721100	-0.09984900	1.05802600	-0.45090300	-0.33846100	-1.29857200	0.11270100	-0.32498900	-0.02600800
1386	13.85000000	-0.51321100	0.05391700	-0.06350600	-0.09493900	0.08422700	0.49890200	-2.76687300	-0.49270700	-0.23281000	-0.01445200	-0.07343600	1.66501900	0.45789100	-0.09073000	0.45959700	0.63356700	-0.18286600	1.04576200	-0.51056400	-0.25500900	-0.90128700	0.08746600	-0.34361700	0.01045800
1387	13.86000000	-0.46990800	0.03115700	-0.03965200	-0.03376600	0.07551200	0.56017700	-1.47187900	-0.19054300	0.07559900	0.07041800	-0.06593800	1.71120700	0.50714300	-0.03388400	0.43502100	0.73156900	-0.21086100	1.02582600	-0.83021400	0.22758600	-0.30157500	0.05689500	-0.35142500	0.05290400
1388	13.87000000	-0.46356000	-0.00000600	-0.03093200	0.03183400	0.04707600	0.56805700	-0.35478300	-0.11955200	0.50780600	0.19968500	-0.01293400	1.75213900	0.48141800	-0.06947800	0.45089900	0.82815200	-0.25693600	0.94716800	-0.79073400	0.56472700	0.22290200	0.03958200	-0.33314200	0.06345900
1389	13.88000000	-0.46502200	-0.03915900	-0.04118700	0.06647700	0.02683500	0.54718400	0.17029900	-0.15513600	0.89564100	0.45659000	0.06169500	1.74086100	0.53174700	-0.04388900	0.44445100	0.82036200	-0.25736200	0.89273500	-0.52133400	0.74005600	0.71339800	0.04224800	-0.31646200	0.06435200
1390	13.89000000	-0.46327600	-0.09325700	-0.05721500	0.06214200	0.03291400	0.52635700	0.57268500	0.05329100	1.31784900	0.82231700	0.13901700	1.72333700	0.42479200	-0.07567500	0.46734400	0.72020000	-0.19666900	0.85854500	-0.35864700	0.91182200	1.24435800	0.07117600	-0.28755700	0.04555700
